<?xml version="1.0" encoding="utf-8"?>
<!-- Uploaded to SVGRepo https://www.svgrepo.com -->
<!DOCTYPE svg PUBLIC "-//W3C//DTD SVG 1.1//EN" "http://www.w3.org/Graphics/SVG/1.1/DTD/svg11.dtd">
<svg width="1000px" height="1000px" viewBox="0 0 1000 1000" version="1.1" xmlns="http://www.w3.org/2000/svg" xmlns:xlink="http://www.w3.org/1999/xlink" x="0px" y="0px" enable-background="new 0 0 1000 1000" xml:space="preserve">
<metadata> Svg Vector Icons : http://www.onlinewebfonts.com/icon </metadata>
<g><g transform="translate(0.000000,511.000000) scale(0.100000,-0.100000)"><path d="M3587.3,4964.6l-53.4-43.5l-2-484.1l-4-484.1l-482.1-4c-460.4-2-484.1-3.9-523.6-43.5c-41.5-43.5-41.5-45.4-51.4-1764.4l-9.9-1720.9l-484.1-162C1481.1,90.2,1423.8,58.6,1423.8-36.2c0-23.7,241.1-1007.7,533.5-2185.2c294.4-1179.6,553.2-2218.8,575-2311.7c29.6-118.6,55.3-181.8,90.9-213.4l47.4-43.5H5000h2329.5l47.4,45.4c43.5,37.5,120.5,326,624.4,2349.2c316.1,1270.4,575,2327.5,575,2353.2c0,96.8-43.5,118.5-551.3,290.4L7529,416.3v1713v1713l-43.5,51.4l-45.4,49.4l-484.1,5.9l-484.1,4l-5.9,488l-4,488l-53.3,39.5c-49.4,41.5-67.2,41.5-1410.7,41.5H3638.7L3587.3,4964.6z M6161.8,4324.4l-5.9-371.5l-1096.6-4c-602.6-3.9-1126.2,0-1159.8,5.9l-65.2,9.9v363.5v365.5H5000h1165.7L6161.8,4324.4z M7212.9,2747.7v-899H5000H2787.1v899v899H5000h2212.9V2747.7z M7212.9,1028.7c0-276.6-2-503.8-5.9-503.8c-2,0-497.9,164-1100.5,365.5C5503.8,1092,4988.1,1256,4960.5,1256s-519.6-160-1092.6-355.6c-575-195.6-1053.1-355.6-1063-355.6c-9.9,0-17.8,201.5-17.8,493.9v494H5000h2212.9V1028.7z M4802.4-1796.7v-2677.2h-983.9h-984L2305-2334.1c-292.4,1175.6-531.5,2149.7-533.5,2165.5c-2,19.8,452.5,181.7,1489.8,537.4c820,280.6,1503.6,509.8,1517.4,509.8C4796.5,880.6,4802.4,333.3,4802.4-1796.7z M6695.2,366.9c843.7-284.5,1535.2-517.7,1537.2-519.6c2-2-237.1-976.1-531.5-2161.5l-535.4-2159.6H6142H5118.5v2677.2c0,1979.8,5.9,2677.2,21.7,2677.2C5154.1,880.6,5853.6,649.4,6695.2,366.9z"/><path d="M3310.7,2846.5c-59.3-59.3-63.2-126.4-7.9-195.6l39.5-51.4h335.9c308.2,0,337.9,4,373.4,39.5c23.7,23.7,39.5,65.2,39.5,108.7c0,43.5-15.8,85-39.5,108.7c-35.6,35.6-65.2,39.5-365.5,39.5C3364,2895.9,3358.1,2895.9,3310.7,2846.5z"/><path d="M5418.9,2850.4c-55.3-59.3-57.3-158.1-4-211.4c37.5-37.5,65.2-39.5,640.2-39.5h602.6l41.5,53.4c51.4,65.2,41.5,156.1-21.7,209.4c-37.5,29.6-98.8,33.6-628.3,33.6h-588.8L5418.9,2850.4z"/><path d="M3411.5-824.6c-731-320.1-782.4-349.7-754.8-456.4c15.8-65.2,86.9-130.4,142.3-130.4c59.3,0,1392.9,584.8,1438.4,632.3c57.3,55.3,49.4,154.1-15.8,211.4c-29.6,23.7-69.2,45.4-86.9,45.4C4116.8-522.3,3790.8-658.6,3411.5-824.6z"/><path d="M5865.4-581.5c-47.4-49.4-57.3-71.1-45.4-114.6c5.9-29.6,27.7-69.2,45.4-86.9c35.6-35.6,1373.2-628.3,1418.6-628.3c154.1,0,211.4,201.5,83,282.5c-79,49.4-1371.2,606.6-1406.8,606.6C5940.5-522.3,5899-549.9,5865.4-581.5z"/></g></g>
</svg>